<svg id="Lager_1" data-name="Lager 1" xmlns="http://www.w3.org/2000/svg" xmlns:xlink="http://www.w3.org/1999/xlink" viewBox="0 0 259.59 192"><defs><style>.cls-1,.cls-2{fill:none;}.cls-2{clip-rule:evenodd;}.cls-3{clip-path:url(#clip-path);}.cls-4{fill:#969696;}.cls-5{clip-path:url(#clip-path-2);}.cls-6{clip-path:url(#clip-path-4);}.cls-7{clip-path:url(#clip-path-6);}</style><clipPath id="clip-path" transform="translate(-198.78 -262.89)"><rect class="cls-1" x="-182.18" y="116.89" width="1024" height="1024"/></clipPath><clipPath id="clip-path-2" transform="translate(-198.78 -262.89)"><polygon class="cls-2" points="289.76 319.99 275.69 327.35 278.38 311.77 267 300.74 282.72 298.47 289.76 284.3 296.79 298.47 312.52 300.74 301.14 311.77 303.83 327.35 289.76 319.99"/></clipPath><clipPath id="clip-path-4" transform="translate(-198.78 -262.89)"><polygon class="cls-2" points="334.32 303.58 320.26 310.94 322.94 295.36 311.56 284.33 327.29 282.06 334.32 267.89 341.36 282.06 357.09 284.33 345.71 295.36 348.39 310.94 334.32 303.58"/></clipPath><clipPath id="clip-path-6" transform="translate(-198.78 -262.89)"><polygon class="cls-2" points="378.89 319.99 364.82 327.35 367.51 311.77 356.13 300.74 371.86 298.47 378.89 284.3 385.93 298.47 401.65 300.74 390.27 311.77 392.96 327.35 378.89 319.99"/></clipPath></defs><title>lota-logo</title><g class="cls-3"><path class="cls-4" d="M222.56,454.89l-2-5.25H208.41l-2,5.25h-7.61l12-28.81h7.27l12,28.81h-7.57Zm-8.08-20.81-3.65,9.46h7.35Z" transform="translate(-198.78 -262.89)"/><path class="cls-4" d="M246.81,426.08c6.49,0,10.58,4,10.58,9.93s-4.21,10.06-10.88,10.06h-6.79v8.81h-7.09V426.08h14.19ZM246,440.14c2.75,0,4.43-1.59,4.43-4s-1.68-4-4.43-4h-6.28v8H246Z" transform="translate(-198.78 -262.89)"/><path class="cls-4" d="M282.46,454.89l-2-5.25H268.31l-2,5.25h-7.61l12-28.81H278l12,28.81h-7.57Zm-8.08-20.81-3.65,9.46h7.35Z" transform="translate(-198.78 -262.89)"/><path class="cls-4" d="M310.36,454.89L301.68,445h-2.06v9.89h-7.09V426.08H307.1c6.24,0,10.36,3.78,10.36,9.42,0,4.73-2.92,8.13-7.57,9.16l9,10.23h-8.56Zm-4-15.82c2.54,0,4.17-1.37,4.17-3.48s-1.63-3.44-4.17-3.44h-6.71v6.92h6.71Z" transform="translate(-198.78 -262.89)"/><path class="cls-4" d="M336.46,432.27v22.62h-7.05V432.27h-9.33v-6.19h25.71v6.19h-9.33Z" transform="translate(-198.78 -262.89)"/><path class="cls-4" d="M382.39,454.89h-6.88V439.54l-8.08,15.35h-3.27L356,439.45v15.44h-6.88V426.08h7l9.67,18.27,9.67-18.27h6.92v28.81Z" transform="translate(-198.78 -262.89)"/><path class="cls-4" d="M408.66,454.89l-2-5.25H394.51l-2,5.25h-7.61l12-28.81h7.27l12,28.81h-7.57Zm-8.08-20.81-3.65,9.46h7.35Z" transform="translate(-198.78 -262.89)"/><path class="cls-4" d="M446.24,454.89h-5.85l-14.58-16.68v16.68h-7.09V426.08h5.89l14.58,17.2v-17.2h7.05v28.81Z" transform="translate(-198.78 -262.89)"/><path class="cls-4" d="M451.27,454.89V426.08h7.09v28.81h-7.09Z" transform="translate(-198.78 -262.89)"/></g><g class="cls-5"><g class="cls-3"><rect class="cls-4" x="63.21" y="16.41" width="55.52" height="53.05"/></g></g><g class="cls-6"><g class="cls-3"><rect class="cls-4" x="107.78" width="55.52" height="53.05"/></g></g><g class="cls-7"><g class="cls-3"><rect class="cls-4" x="152.35" y="16.41" width="55.52" height="53.05"/></g></g><g class="cls-3"><path class="cls-4" d="M345.39,335.08q0,8.44-5.48,17.65a52.7,52.7,0,0,1-15.13,16.05,48.37,48.37,0,0,1-19.93,8.58q-5.92,11.93-8.53,16.68l-2,3.3q19.2,4.75,31.81,14.45a24.19,24.19,0,0,1,8.63,12.12,21.52,21.52,0,0,1,1.16,6.3,8.82,8.82,0,0,1-1,4.41,5.88,5.88,0,0,1-2.38,2.47,5.28,5.28,0,0,1-1.94.68,0.48,0.48,0,0,1-.58-0.49,11.75,11.75,0,0,1,1.12-2.86,13,13,0,0,0,1.12-5.58,21.62,21.62,0,0,0-1.36-7.08,17.09,17.09,0,0,0-5-7.13,39.28,39.28,0,0,0-10.23-6.11,75.24,75.24,0,0,0-11.35-4.07q-4.8-1.21-12.85-2.76-8.25,11.54-17.17,15.81a22,22,0,0,1-9.46,2.62,15.77,15.77,0,0,1-7.32-1.65q-5.53-2.72-5.53-8.25t7.28-9.7q8.24-4.85,22.31-4.85a49,49,0,0,1,9.12.78,189.6,189.6,0,0,0,10.19-18.72h-1.07a31,31,0,0,1-11.35-2,21.18,21.18,0,0,1-8.34-5.53,15,15,0,0,1-4.07-10.28,16.52,16.52,0,0,1,1.5-6.5q1.5-3.49,6.69-7.08a38.08,38.08,0,0,1,13.14-5.43,9.8,9.8,0,0,1,2.13-.29,1,1,0,0,1,1.07.49q0.19,0.49-.78.87a10.18,10.18,0,0,1-2.23.58,17.89,17.89,0,0,0-7.76,2.81q-6.21,4-8.63,12.22a13,13,0,0,0-.58,3.73,17,17,0,0,0,.68,4.32,13.85,13.85,0,0,0,2.91,5.19,11.76,11.76,0,0,0,6.06,3.73,25.36,25.36,0,0,0,6.69,1.07,44.67,44.67,0,0,0,5.29-.29l8.25-20.76q8.53-21.92,20.37-27a16.07,16.07,0,0,1,6.06-1.26,9.58,9.58,0,0,1,5.63,1.89,6.1,6.1,0,0,1,2.86,4.61C345.36,333.62,345.39,334.37,345.39,335.08Zm-57.81,66.06a44.63,44.63,0,0,0-9.8-1.07,39.37,39.37,0,0,0-10.38,1.46q-11.16,2.91-13.09,8.25a4.94,4.94,0,0,0-.39,1.84q0,2.52,2.76,4.12a11.88,11.88,0,0,0,6.06,1.6,23.33,23.33,0,0,0,9.89-2.52Q280.69,410.93,287.58,401.13Zm53.74-66q0-3.69-3.4-3.69-4.95,0-12,8.63a102,102,0,0,0-10.62,16.64q-5.09,9.75-9.07,18,13.48-3,24.3-14.79T341.32,335.17Z" transform="translate(-198.78 -262.89)"/><path class="cls-4" d="M344.62,374.85q7.08,0,7.08,8.92a21.05,21.05,0,0,1-2.13,8.73,34.54,34.54,0,0,1-8.15,11.45q1.26,2.43,4.56,2.42a6.66,6.66,0,0,0,4.95-2.62,26.64,26.64,0,0,0,4.17-5.29l1.84-3.35q0.58-1.07,1.5-3.06l1.12-2.42a0.69,0.69,0,0,1,.68-0.44q1-.1,1,0.68a1.56,1.56,0,0,1-.19.68l-0.58,1.36q-0.58,1.36-.87,1.94l-1,2.09q-0.73,1.5-1.26,2.38t-1.46,2.33a22.64,22.64,0,0,1-1.65,2.33q-0.73.87-1.79,1.94a10.9,10.9,0,0,1-2,1.65,8.94,8.94,0,0,1-4.56,1.46,7.85,7.85,0,0,1-6.21-2.52q-4.46,3.3-8.25,3.3-7.08,0-7.08-8.92a21,21,0,0,1,2.13-8.73,32.54,32.54,0,0,1,8.2-11.54Q339.86,374.85,344.62,374.85Zm1.07,3q-2.62,0-6.21,3.49a32.08,32.08,0,0,0-6.4,9.51q-3.4,7-3.39,11.45t3.39,4.46q2.42,0,5.43-2.62a8.17,8.17,0,0,1-1.55-4.75q0.19-4.17,3.4-4.17a2.75,2.75,0,0,1,2.09.87,2.48,2.48,0,0,1,.82,1.6,6.22,6.22,0,0,1-.19,1.5,54.75,54.75,0,0,0,3.78-6.89,22,22,0,0,0,2.42-9.7Q349.27,377.86,345.68,377.85Z" transform="translate(-198.78 -262.89)"/><path class="cls-4" d="M357,401q0-8.05,7.76-27h-5a0.62,0.62,0,0,1-.63-0.53,1.53,1.53,0,0,1,.1-1.07,0.78,0.78,0,0,1,.73-0.53h5.82q3.49-7.66,6.5-12.8t5.53-6.94q2.52-1.79,3.64-1.79a4.73,4.73,0,0,1,1.6.19q2.23,1.07,2.23,4.41a19.82,19.82,0,0,1-2.23,8.1q-2.23,4.75-4.36,8.83h4.66a0.62,0.62,0,0,1,.63.53,1.54,1.54,0,0,1-.1,1.07,0.78,0.78,0,0,1-.73.53H377.5a70.49,70.49,0,0,1-12.9,16L362.37,400a11,11,0,0,0-.29,2.47,5.18,5.18,0,0,0,.68,2.47,2.26,2.26,0,0,0,2.13,1.26,7.58,7.58,0,0,0,3.69-1.16q4.66-3.49,10.28-14.65a1.83,1.83,0,0,1,.92-1.07q0.53-.19.63,0.24a2.77,2.77,0,0,1-.29,1.41,90.62,90.62,0,0,1-5,9.51q-5.24,8.44-11.16,8.44a6.26,6.26,0,0,1-4.95-2.23A8.26,8.26,0,0,1,357,401Zm18.24-27h-4.56q-1.16,2.72-5.24,12.9A74.14,74.14,0,0,0,375.27,374.07Zm1.26-2.13q6.4-11.44,6.4-15.91,0-1.94-.68-1.94-1.07,0-3.25,3.1t-7.32,14.74h4.85Z" transform="translate(-198.78 -262.89)"/><path class="cls-4" d="M403.4,390.41a40.7,40.7,0,0,0-3.83,9.22,25.6,25.6,0,0,0-.63,4.95q0,1.89,1.46,1.89,1.84,0,4.56-3.39a69.09,69.09,0,0,0,7.86-12.9,1.46,1.46,0,0,1,.87-1q0.78-.29.78,0.58a3,3,0,0,1-.29,1.16q-8.93,18-15,18a5.24,5.24,0,0,1-4.56-2.72,7.49,7.49,0,0,1-.87-3.88,22.75,22.75,0,0,1,1-5.92Q386.91,409,381.28,409a4.5,4.5,0,0,1-2.81-1q-2.91-2-2.91-7,0-9.51,8.24-19.3a21.42,21.42,0,0,1,11.45-7.08,13.73,13.73,0,0,1,3.49-.49,10.3,10.3,0,0,1,7.57,3.1,1.9,1.9,0,0,1,.58,2,1.34,1.34,0,0,1-1.65.78,4.47,4.47,0,0,0-4.66-3.49q-4.17,0-10.28,6.6a53.11,53.11,0,0,0-6.5,9.12Q380,398.61,380,402.39t2.42,3.78q5.82,0,15.23-17.85a22.26,22.26,0,0,1,3.1-4.9,4.25,4.25,0,0,1,3.2-1.31,16.26,16.26,0,0,1,2,.29,6.11,6.11,0,0,0,2.38.1Q406.6,384.26,403.4,390.41Z" transform="translate(-198.78 -262.89)"/></g></svg>